solid Default
  facet normal 8.540177e-17 1.000000e+00 6.123234e-17
    outer loop
      vertex -5.200000e+00 2.485000e+01 5.200000e+01
      vertex 0.000000e+00 2.485000e+01 5.200000e+01
      vertex -5.200000e+00 2.485000e+01 0.000000e+00
    endloop
  endfacet
  facet normal 8.540177e-17 1.000000e+00 6.123234e-17
    outer loop
      vertex -5.200000e+00 2.485000e+01 0.000000e+00
      vertex 0.000000e+00 2.485000e+01 5.200000e+01
      vertex 0.000000e+00 2.485000e+01 0.000000e+00
    endloop
  endfacet
  facet normal 1.000000e+00 -1.158494e-15 -7.093728e-32
    outer loop
      vertex -5.200000e+00 2.715000e+01 5.200000e+01
      vertex -5.200000e+00 2.485000e+01 5.200000e+01
      vertex -5.200000e+00 2.715000e+01 0.000000e+00
    endloop
  endfacet
  facet normal 1.000000e+00 -1.158494e-15 -7.093728e-32
    outer loop
      vertex -5.200000e+00 2.715000e+01 0.000000e+00
      vertex -5.200000e+00 2.485000e+01 5.200000e+01
      vertex -5.200000e+00 2.485000e+01 0.000000e+00
    endloop
  endfacet
  facet normal -8.540177e-17 -1.000000e+00 -6.123234e-17
    outer loop
      vertex 3.330669e-15 2.715000e+01 5.200000e+01
      vertex -5.200000e+00 2.715000e+01 5.200000e+01
      vertex 3.330669e-15 2.715000e+01 0.000000e+00
    endloop
  endfacet
  facet normal -8.540177e-17 -1.000000e+00 -6.123234e-17
    outer loop
      vertex 3.330669e-15 2.715000e+01 0.000000e+00
      vertex -5.200000e+00 2.715000e+01 5.200000e+01
      vertex -5.200000e+00 2.715000e+01 0.000000e+00
    endloop
  endfacet
  facet normal 1.000000e+00 4.163336e-16 2.549308e-32
    outer loop
      vertex 3.330669e-15 2.715000e+01 5.200000e+01
      vertex 3.330669e-15 2.715000e+01 0.000000e+00
      vertex 2.914335e-15 2.815000e+01 5.200000e+01
    endloop
  endfacet
  facet normal 1.000000e+00 4.163336e-16 2.549308e-32
    outer loop
      vertex 2.914335e-15 2.815000e+01 5.200000e+01
      vertex 3.330669e-15 2.715000e+01 0.000000e+00
      vertex 2.914335e-15 2.815000e+01 0.000000e+00
    endloop
  endfacet
  facet normal 1.110223e-16 1.000000e+00 6.123234e-17
    outer loop
      vertex -1.600000e+01 2.815000e+01 5.200000e+01
      vertex 2.914335e-15 2.815000e+01 5.200000e+01
      vertex -1.600000e+01 2.815000e+01 0.000000e+00
    endloop
  endfacet
  facet normal 1.110223e-16 1.000000e+00 6.123234e-17
    outer loop
      vertex -1.600000e+01 2.815000e+01 0.000000e+00
      vertex 2.914335e-15 2.815000e+01 5.200000e+01
      vertex 2.914335e-15 2.815000e+01 0.000000e+00
    endloop
  endfacet
  facet normal -1.000000e+00 7.105427e-15 4.350820e-31
    outer loop
      vertex -1.600000e+01 2.815000e+01 5.200000e+01
      vertex -1.600000e+01 2.815000e+01 0.000000e+00
      vertex -1.600000e+01 2.715000e+01 5.200000e+01
    endloop
  endfacet
  facet normal -1.000000e+00 7.105427e-15 4.350820e-31
    outer loop
      vertex -1.600000e+01 2.715000e+01 5.200000e+01
      vertex -1.600000e+01 2.815000e+01 0.000000e+00
      vertex -1.600000e+01 2.715000e+01 0.000000e+00
    endloop
  endfacet
  facet normal -2.562053e-16 -1.000000e+00 -6.123234e-17
    outer loop
      vertex -1.080000e+01 2.715000e+01 5.200000e+01
      vertex -1.600000e+01 2.715000e+01 5.200000e+01
      vertex -1.080000e+01 2.715000e+01 0.000000e+00
    endloop
  endfacet
  facet normal -2.562053e-16 -1.000000e+00 -6.123234e-17
    outer loop
      vertex -1.080000e+01 2.715000e+01 0.000000e+00
      vertex -1.600000e+01 2.715000e+01 5.200000e+01
      vertex -1.600000e+01 2.715000e+01 0.000000e+00
    endloop
  endfacet
  facet normal -1.000000e+00 -7.723290e-16 -4.729151e-32
    outer loop
      vertex -1.080000e+01 2.485000e+01 5.200000e+01
      vertex -1.080000e+01 2.715000e+01 5.200000e+01
      vertex -1.080000e+01 2.485000e+01 0.000000e+00
    endloop
  endfacet
  facet normal -1.000000e+00 -7.723290e-16 -4.729151e-32
    outer loop
      vertex -1.080000e+01 2.485000e+01 0.000000e+00
      vertex -1.080000e+01 2.715000e+01 5.200000e+01
      vertex -1.080000e+01 2.715000e+01 0.000000e+00
    endloop
  endfacet
  facet normal 1.708035e-16 1.000000e+00 6.123234e-17
    outer loop
      vertex -1.600000e+01 2.485000e+01 5.200000e+01
      vertex -1.080000e+01 2.485000e+01 5.200000e+01
      vertex -1.600000e+01 2.485000e+01 0.000000e+00
    endloop
  endfacet
  facet normal 1.708035e-16 1.000000e+00 6.123234e-17
    outer loop
      vertex -1.600000e+01 2.485000e+01 0.000000e+00
      vertex -1.080000e+01 2.485000e+01 5.200000e+01
      vertex -1.080000e+01 2.485000e+01 0.000000e+00
    endloop
  endfacet
  facet normal -1.000000e+00 0.000000e+00 -0.000000e+00
    outer loop
      vertex -1.600000e+01 2.485000e+01 5.200000e+01
      vertex -1.600000e+01 2.485000e+01 0.000000e+00
      vertex -1.600000e+01 2.385000e+01 5.200000e+01
    endloop
  endfacet
  facet normal -1.000000e+00 0.000000e+00 0.000000e+00
    outer loop
      vertex -1.600000e+01 2.385000e+01 5.200000e+01
      vertex -1.600000e+01 2.485000e+01 0.000000e+00
      vertex -1.600000e+01 2.385000e+01 0.000000e+00
    endloop
  endfacet
  facet normal -1.224647e-16 -1.000000e+00 -6.123234e-17
    outer loop
      vertex 0.000000e+00 2.385000e+01 5.200000e+01
      vertex -1.600000e+01 2.385000e+01 5.200000e+01
      vertex 0.000000e+00 2.385000e+01 0.000000e+00
    endloop
  endfacet
  facet normal -1.224647e-16 -1.000000e+00 -6.123234e-17
    outer loop
      vertex 0.000000e+00 2.385000e+01 0.000000e+00
      vertex -1.600000e+01 2.385000e+01 5.200000e+01
      vertex -1.600000e+01 2.385000e+01 0.000000e+00
    endloop
  endfacet
  facet normal 1.000000e+00 0.000000e+00 0.000000e+00
    outer loop
      vertex 0.000000e+00 2.385000e+01 5.200000e+01
      vertex 0.000000e+00 2.385000e+01 0.000000e+00
      vertex 0.000000e+00 2.485000e+01 5.200000e+01
    endloop
  endfacet
  facet normal 1.000000e+00 0.000000e+00 0.000000e+00
    outer loop
      vertex 0.000000e+00 2.485000e+01 5.200000e+01
      vertex 0.000000e+00 2.385000e+01 0.000000e+00
      vertex 0.000000e+00 2.485000e+01 0.000000e+00
    endloop
  endfacet
  facet normal 0.000000e+00 6.123234e-17 -1.000000e+00
    outer loop
      vertex 0.000000e+00 2.485000e+01 0.000000e+00
      vertex 0.000000e+00 2.385000e+01 0.000000e+00
      vertex -5.200000e+00 2.485000e+01 0.000000e+00
    endloop
  endfacet
  facet normal 0.000000e+00 6.123234e-17 -1.000000e+00
    outer loop
      vertex -5.200000e+00 2.485000e+01 0.000000e+00
      vertex 0.000000e+00 2.385000e+01 0.000000e+00
      vertex -1.600000e+01 2.385000e+01 0.000000e+00
    endloop
  endfacet
  facet normal 0.000000e+00 6.123234e-17 -1.000000e+00
    outer loop
      vertex -1.080000e+01 2.485000e+01 0.000000e+00
      vertex -1.600000e+01 2.385000e+01 0.000000e+00
      vertex -1.600000e+01 2.485000e+01 0.000000e+00
    endloop
  endfacet
  facet normal 0.000000e+00 6.123234e-17 -1.000000e+00
    outer loop
      vertex -1.080000e+01 2.485000e+01 0.000000e+00
      vertex -5.200000e+00 2.485000e+01 0.000000e+00
      vertex -1.600000e+01 2.385000e+01 0.000000e+00
    endloop
  endfacet
  facet normal 0.000000e+00 6.123234e-17 -1.000000e+00
    outer loop
      vertex -1.080000e+01 2.485000e+01 0.000000e+00
      vertex -1.080000e+01 2.715000e+01 0.000000e+00
      vertex -5.200000e+00 2.485000e+01 0.000000e+00
    endloop
  endfacet
  facet normal 0.000000e+00 6.123234e-17 -1.000000e+00
    outer loop
      vertex -5.200000e+00 2.485000e+01 0.000000e+00
      vertex -1.080000e+01 2.715000e+01 0.000000e+00
      vertex -5.200000e+00 2.715000e+01 0.000000e+00
    endloop
  endfacet
  facet normal 0.000000e+00 6.123234e-17 -1.000000e+00
    outer loop
      vertex -5.200000e+00 2.715000e+01 0.000000e+00
      vertex -1.080000e+01 2.715000e+01 0.000000e+00
      vertex -1.600000e+01 2.815000e+01 0.000000e+00
    endloop
  endfacet
  facet normal 0.000000e+00 6.123234e-17 -1.000000e+00
    outer loop
      vertex 2.914335e-15 2.815000e+01 0.000000e+00
      vertex -5.200000e+00 2.715000e+01 0.000000e+00
      vertex -1.600000e+01 2.815000e+01 0.000000e+00
    endloop
  endfacet
  facet normal 0.000000e+00 6.123234e-17 -1.000000e+00
    outer loop
      vertex 2.914335e-15 2.815000e+01 0.000000e+00
      vertex 3.330669e-15 2.715000e+01 0.000000e+00
      vertex -5.200000e+00 2.715000e+01 0.000000e+00
    endloop
  endfacet
  facet normal 0.000000e+00 6.123234e-17 -1.000000e+00
    outer loop
      vertex -1.080000e+01 2.715000e+01 0.000000e+00
      vertex -1.600000e+01 2.715000e+01 0.000000e+00
      vertex -1.600000e+01 2.815000e+01 0.000000e+00
    endloop
  endfacet
  facet normal -0.000000e+00 -6.123234e-17 1.000000e+00
    outer loop
      vertex 0.000000e+00 2.485000e+01 5.200000e+01
      vertex -5.200000e+00 2.485000e+01 5.200000e+01
      vertex 0.000000e+00 2.385000e+01 5.200000e+01
    endloop
  endfacet
  facet normal 0.000000e+00 -6.123234e-17 1.000000e+00
    outer loop
      vertex 0.000000e+00 2.385000e+01 5.200000e+01
      vertex -5.200000e+00 2.485000e+01 5.200000e+01
      vertex -1.600000e+01 2.385000e+01 5.200000e+01
    endloop
  endfacet
  facet normal 0.000000e+00 -6.123234e-17 1.000000e+00
    outer loop
      vertex -1.600000e+01 2.385000e+01 5.200000e+01
      vertex -5.200000e+00 2.485000e+01 5.200000e+01
      vertex -1.080000e+01 2.485000e+01 5.200000e+01
    endloop
  endfacet
  facet normal 0.000000e+00 -6.123234e-17 1.000000e+00
    outer loop
      vertex -1.600000e+01 2.485000e+01 5.200000e+01
      vertex -1.600000e+01 2.385000e+01 5.200000e+01
      vertex -1.080000e+01 2.485000e+01 5.200000e+01
    endloop
  endfacet
  facet normal 0.000000e+00 -6.123234e-17 1.000000e+00
    outer loop
      vertex -5.200000e+00 2.485000e+01 5.200000e+01
      vertex -5.200000e+00 2.715000e+01 5.200000e+01
      vertex -1.080000e+01 2.485000e+01 5.200000e+01
    endloop
  endfacet
  facet normal 0.000000e+00 -6.123234e-17 1.000000e+00
    outer loop
      vertex -1.080000e+01 2.485000e+01 5.200000e+01
      vertex -5.200000e+00 2.715000e+01 5.200000e+01
      vertex -1.080000e+01 2.715000e+01 5.200000e+01
    endloop
  endfacet
  facet normal 0.000000e+00 -6.123234e-17 1.000000e+00
    outer loop
      vertex -1.080000e+01 2.715000e+01 5.200000e+01
      vertex -5.200000e+00 2.715000e+01 5.200000e+01
      vertex -1.600000e+01 2.815000e+01 5.200000e+01
    endloop
  endfacet
  facet normal 0.000000e+00 -6.123234e-17 1.000000e+00
    outer loop
      vertex -1.600000e+01 2.715000e+01 5.200000e+01
      vertex -1.080000e+01 2.715000e+01 5.200000e+01
      vertex -1.600000e+01 2.815000e+01 5.200000e+01
    endloop
  endfacet
  facet normal 0.000000e+00 -6.123234e-17 1.000000e+00
    outer loop
      vertex 3.330669e-15 2.715000e+01 5.200000e+01
      vertex 2.914335e-15 2.815000e+01 5.200000e+01
      vertex -5.200000e+00 2.715000e+01 5.200000e+01
    endloop
  endfacet
  facet normal 0.000000e+00 -6.123234e-17 1.000000e+00
    outer loop
      vertex -5.200000e+00 2.715000e+01 5.200000e+01
      vertex 2.914335e-15 2.815000e+01 5.200000e+01
      vertex -1.600000e+01 2.815000e+01 5.200000e+01
    endloop
  endfacet
endsolid Default
